<?xml version="1.0" encoding="UTF-8" standalone="no"?>
<!-- Created with Inkscape (http://www.inkscape.org/) -->

<svg
   xmlns:dc="http://purl.org/dc/elements/1.1/"
   xmlns:cc="http://creativecommons.org/ns#"
   xmlns:rdf="http://www.w3.org/1999/02/22-rdf-syntax-ns#"
   xmlns:svg="http://www.w3.org/2000/svg"
   xmlns="http://www.w3.org/2000/svg"
   xmlns:xlink="http://www.w3.org/1999/xlink"
   xmlns:sodipodi="http://sodipodi.sourceforge.net/DTD/sodipodi-0.dtd"
   xmlns:inkscape="http://www.inkscape.org/namespaces/inkscape"
   width="2048"
   height="2048"
   id="svg2"
   version="1.1"
   inkscape:version="0.48.0 r9654"
   sodipodi:docname="Icon.svg"
   inkscape:export-filename="/home/brunnerj/Projects/Krach/trunk/Imaages/Icon 55 × 55.png"
   inkscape:export-xdpi="2.4200001"
   inkscape:export-ydpi="2.4200001">
  <defs
     id="defs4">
    <linearGradient
       id="linearGradient3904">
      <stop
         id="stop3906"
         offset="0"
         style="stop-color:#007f7f;stop-opacity:1;" />
      <stop
         id="stop3908"
         offset="1"
         style="stop-color:#00ffff;stop-opacity:1;" />
    </linearGradient>
    <linearGradient
       id="linearGradient3886">
      <stop
         style="stop-color:#ff0000;stop-opacity:0;"
         offset="0"
         id="stop3888" />
      <stop
         style="stop-color:#ff0000;stop-opacity:1;"
         offset="1"
         id="stop3890" />
    </linearGradient>
    <radialGradient
       inkscape:collect="always"
       xlink:href="#linearGradient3886"
       id="radialGradient3892"
       cx="-341.33331"
       cy="512.00006"
       fx="-341.33331"
       fy="512.00006"
       r="1024"
       gradientUnits="userSpaceOnUse"
       gradientTransform="matrix(6.9352963e-6,-0.99999992,0.99999993,-8.1578302e-8,128.00226,-696.97115)" />
    <linearGradient
       inkscape:collect="always"
       xlink:href="#linearGradient3904-2"
       id="linearGradient3902-8"
       x1="-256"
       y1="384"
       x2="-256"
       y2="0"
       gradientUnits="userSpaceOnUse" />
    <linearGradient
       id="linearGradient3904-2">
      <stop
         id="stop3906-2"
         offset="0"
         style="stop-color:#7f7f00;stop-opacity:1;" />
      <stop
         id="stop3908-0"
         offset="1"
         style="stop-color:#ffff00;stop-opacity:1;" />
    </linearGradient>
    <linearGradient
       inkscape:collect="always"
       xlink:href="#linearGradient3904-5"
       id="linearGradient3902-4"
       x1="-256"
       y1="384"
       x2="-256"
       y2="0"
       gradientUnits="userSpaceOnUse" />
    <linearGradient
       id="linearGradient3904-5">
      <stop
         id="stop3906-8"
         offset="0"
         style="stop-color:#7f7f00;stop-opacity:1;" />
      <stop
         id="stop3908-4"
         offset="1"
         style="stop-color:#ffff00;stop-opacity:1;" />
    </linearGradient>
  </defs>
  <sodipodi:namedview
     id="base"
     pagecolor="#ffffff"
     bordercolor="#666666"
     borderopacity="1.0"
     inkscape:pageopacity="0.0"
     inkscape:pageshadow="2"
     inkscape:zoom="0.30009657"
     inkscape:cx="1024"
     inkscape:cy="1024"
     inkscape:document-units="px"
     inkscape:current-layer="svg2"
     showgrid="true"
     inkscape:object-nodes="false"
     inkscape:snap-smooth-nodes="false"
     inkscape:window-width="1280"
     inkscape:window-height="753"
     inkscape:window-x="0"
     inkscape:window-y="0"
     inkscape:window-maximized="1"
     inkscape:snap-page="false"
     inkscape:snap-bbox="false">
    <inkscape:grid
       empspacing="4"
       visible="true"
       enabled="true"
       snapvisiblegridlinesonly="true"
       spacingx="128px"
       spacingy="128px"
       type="xygrid"
       id="grid3844" />
  </sodipodi:namedview>
  <metadata
     id="metadata7">
    <rdf:RDF>
      <cc:Work
         rdf:about="">
        <dc:format>image/svg+xml</dc:format>
        <dc:type
           rdf:resource="http://purl.org/dc/dcmitype/StillImage" />
        <dc:title></dc:title>
      </cc:Work>
    </rdf:RDF>
  </metadata>
  <g
     inkscape:groupmode="layer"
     id="layer3"
     inkscape:label="Helpers"
     style="display:none">
    <path
       sodipodi:type="star"
       style="fill:none;stroke:#000000;stroke-width:6.00000048;stroke-linecap:butt;stroke-linejoin:bevel;stroke-miterlimit:4;stroke-opacity:1;stroke-dasharray:none"
       id="path4023"
       sodipodi:sides="32"
       sodipodi:cx="1024"
       sodipodi:cy="1024"
       sodipodi:r1="1536"
       sodipodi:r2="512"
       sodipodi:arg1="-1.5707963"
       sodipodi:arg2="-1.4726215"
       inkscape:flatsided="true"
       inkscape:rounded="0"
       inkscape:randomized="0"
       d="m 1024,-512 299.6588,29.51382 288.143,87.40723 265.5541,141.94165 232.7601,191.021313 191.0213,232.760147 141.9417,265.55413 87.4072,288.14302 L 2560,1024 l -29.5138,299.6588 -87.4073,288.143 -141.9416,265.5541 -191.0213,232.7601 -232.7602,191.0213 -265.5541,141.9417 -288.143,87.4072 L 1024,2560 724.34123,2530.4862 436.19821,2443.0789 170.64409,2301.1373 -62.116045,2110.116 -253.13735,1877.3558 -395.07898,1611.8017 -482.4862,1323.6587 -512,1024 -482.48618,724.34123 -395.07895,436.19821 -253.1373,170.64409 -62.115987,-62.116045 170.64416,-253.13735 436.19829,-395.07898 724.34131,-482.4862 z"
       inkscape:transform-center-y="-162.97223"
       transform="matrix(1.6666666,0,0,1.6666666,-1066.6667,-1066.6667)"
       inkscape:transform-center-x="6.16e-05" />
  </g>
  <g
     inkscape:groupmode="layer"
     id="layer4"
     inkscape:label="Background"
     style="display:inline">
    <rect
       style="fill:#000000;fill-opacity:1;fill-rule:nonzero;stroke:none;display:inline"
       id="rect3850"
       width="2048"
       height="2048"
       x="0"
       y="0" />
    <path
       transform="translate(0,995.63782)"
       style="fill:url(#radialGradient3892);fill-opacity:1;stroke:none;display:inline"
       d="m -1170.1934,-2165.8311 1810.19339,1810.19322 -1422.2598,-2128.56202 442.59022,-236.5695 979.66958,2365.13152 -499.43125,-2510.81032 499.43125,-49.1896 0,2559.99992 499.43111,-2510.81032 480.2385,145.6788 L 639.99999,-355.63788 2062.2599,-2484.1999 2450.1934,-2165.8311 639.99999,-355.63788 2768.5621,-1777.8976 3005.1316,-1335.3074 639.99999,-355.63788 3150.8104,-855.06905 3200,-355.63784 639.99999,-355.63788 3150.8104,143.79337 3005.1316,624.0317 639.99999,-355.63788 2768.5621,1066.6219 2450.1934,1454.5556 639.99999,-355.63788 2062.2599,1772.9243 1619.6696,2009.4937 639.99999,-355.63788 1139.4311,2155.1724 l -499.43111,49.1898 0,-2560.00008 L 140.56874,2155.1724 -339.66959,2009.4937 639.99999,-355.63788 -782.25981,1772.9243 -1170.1934,1454.5556 639.99999,-355.63788 -1488.5622,1066.6219 -1725.1316,624.0317 639.99999,-355.63788 -1870.8103,143.79337 -1920,-355.63784 l 2559.99999,-4e-5 -2510.81029,-499.43117 145.6787,-480.23835 2365.13159,979.66952 -2128.56219,-1422.25972 z"
       id="path3848"
       inkscape:connector-curvature="0"
       sodipodi:nodetypes="ccccccccccccccccccccccccccccccccccccccccccccccccc" />
  </g>
  <g
     inkscape:groupmode="layer"
     id="layer2"
     inkscape:label="Explosion"
     style="display:inline">
    <path
       sodipodi:type="arc"
       style="fill:none;stroke:#fcffff;stroke-width:100;stroke-linecap:butt;stroke-linejoin:bevel;stroke-miterlimit:4;stroke-opacity:1;stroke-dasharray:none"
       id="path3765"
       sodipodi:cx="1024"
       sodipodi:cy="1024"
       sodipodi:rx="896"
       sodipodi:ry="896"
       d="m 1920,1024 a 896,896 0 0 1 -896,896"
       sodipodi:start="0"
       sodipodi:end="1.5707963"
       sodipodi:open="true"
       transform="translate(-128,-128)" />
    <path
       sodipodi:end="1.5707963"
       sodipodi:start="0"
       d="m 1664,1024 a 640,640 0 0 1 -640,640"
       sodipodi:ry="640"
       sodipodi:rx="640"
       sodipodi:cy="1024"
       sodipodi:cx="1024"
       id="path3767"
       style="fill:none;stroke:#fcffff;stroke-width:100;stroke-linecap:butt;stroke-linejoin:bevel;stroke-miterlimit:4;stroke-opacity:1;stroke-dasharray:none"
       sodipodi:type="arc"
       transform="translate(-128,-128)"
       sodipodi:open="true" />
    <path
       sodipodi:type="arc"
       style="fill:none;stroke:#fcffff;stroke-width:100;stroke-linecap:butt;stroke-linejoin:bevel;stroke-miterlimit:4;stroke-opacity:1;stroke-dasharray:none"
       id="path3769"
       sodipodi:cx="1024"
       sodipodi:cy="1024"
       sodipodi:rx="384"
       sodipodi:ry="384"
       d="m 1408,1024 a 384,384 0 0 1 -384,384"
       sodipodi:start="0"
       sodipodi:end="1.5707963"
       sodipodi:open="true"
       transform="translate(-128,-128)" />
    <path
       sodipodi:type="star"
       style="fill:#ffffff;fill-opacity:1;fill-rule:nonzero;stroke:none"
       id="path3904"
       sodipodi:sides="11"
       sodipodi:cx="640"
       sodipodi:cy="640"
       sodipodi:r1="384"
       sodipodi:r2="230.39999"
       sodipodi:arg1="-1.5707963"
       sodipodi:arg2="-1.285197"
       inkscape:flatsided="false"
       inkscape:rounded="0"
       inkscape:randomized="0"
       d="M 640.00001,256 704.91118,418.93282 847.60608,316.95865 814.1247,489.12009 989.29869,480.48064 868.05485,607.21066 1020.0914,694.64891 849.57921,735.71162 930.20783,891.46653 764.56364,833.82481 748.18529,1008.4453 640,870.39999 531.81469,1008.4453 515.43636,833.82481 349.79216,891.46651 430.42079,735.71162 259.90856,694.64889 411.94515,607.21066 290.70132,480.48063 465.8753,489.12009 432.39393,316.95864 575.08882,418.93283 z"
       inkscape:transform-center-x="76.8"
       inkscape:transform-center-y="-76.79753" />
  </g>
</svg>
